<?xml version="1.0" encoding="utf-8"?>
<!-- Generator: Adobe Illustrator 19.0.0, SVG Export Plug-In . SVG Version: 6.00 Build 0)  -->
<svg version="1.1" id="Capa_1" xmlns="http://www.w3.org/2000/svg" xmlns:xlink="http://www.w3.org/1999/xlink" x="0px" y="0px"
	 viewBox="-493 -6 512 512" style="enable-background:new -493 -6 512 512;" xml:space="preserve">
<style type="text/css">
	.st0{fill:#37474F;}
</style>
<g>
	<path class="st0" d="M-236.4,368.9h0.1c3.9,0,7.7-1.1,10.8-3.2l0.8-0.5c0.2-0.1,0.4-0.2,0.6-0.4l9.8-8.1l232.8-192
		c-0.5-0.7-1.3-1.1-2.2-1.1h-506.6c-0.6,0-1.2,0.2-1.7,0.6l243.6,200.7C-245.3,367.5-241,368.9-236.4,368.9z M-493,190.8v284.8
		l174.5-140.9L-493,190.8z M-155.3,335.6L19,475.6V191.8L-155.3,335.6z M-210.7,381.3c-6.9,5.7-16,8.8-25.6,8.8s-18.7-3.1-25.6-8.8
		l-40-33L-493,502.8v0.5c0,1.5,1.3,2.7,2.7,2.7H16.3c1.5,0,2.7-1.2,2.7-2.7v-0.5l-191-153.4L-210.7,381.3z"/>
</g>
</svg>
