<?xml version="1.0" encoding="utf-8"?>
<!-- Generator: Adobe Illustrator 19.0.0, SVG Export Plug-In . SVG Version: 6.00 Build 0)  -->
<svg version="1.1" id="Capa_1" xmlns="http://www.w3.org/2000/svg" xmlns:xlink="http://www.w3.org/1999/xlink" x="0px" y="0px"
	 viewBox="106 -156 512 512" style="enable-background:new 106 -156 512 512;" xml:space="preserve">
<style type="text/css">
	.st0{fill:#FFFFFF;}
</style>
<g>
	<path class="st0" d="M362.6,218.9h0.1c3.9,0,7.7-1.1,10.8-3.2l0.8-0.5c0.2-0.1,0.4-0.2,0.6-0.4l9.8-8.1l232.8-192
		c-0.5-0.7-1.3-1.1-2.2-1.1H108.7c-0.6,0-1.2,0.2-1.7,0.6l243.6,200.7C353.7,217.5,358,218.9,362.6,218.9z M106,40.8v284.8
		l174.5-140.9L106,40.8z M443.7,185.6l174.3,140V41.8L443.7,185.6z M388.3,231.3c-6.9,5.7-16,8.8-25.6,8.8s-18.7-3.1-25.6-8.8
		l-40-33L106,352.8v0.5c0,1.5,1.3,2.7,2.7,2.7h506.6c1.5,0,2.7-1.2,2.7-2.7v-0.5L427,199.4L388.3,231.3z"/>
</g>
</svg>
