<?xml version="1.0" encoding="utf-8"?>
<!-- Generator: Adobe Illustrator 19.0.0, SVG Export Plug-In . SVG Version: 6.00 Build 0)  -->
<svg version="1.1" id="Capa_1" xmlns="http://www.w3.org/2000/svg" xmlns:xlink="http://www.w3.org/1999/xlink" x="0px" y="0px"
	 viewBox="56 -56 512 512" style="enable-background:new 56 -56 512 512;" xml:space="preserve">
<style type="text/css">
	.st0{fill:#263238;}
</style>
<g>
	<path class="st0" d="M312.6,234.1h0.1c3.9,0,7.7-1.1,10.8-3.2l0.8-0.5c0.2-0.1,0.4-0.2,0.6-0.4l9.8-8.1L567.5,29.9
		c-0.5-0.7-1.3-1.1-2.2-1.1H58.7c-0.6,0-1.2,0.2-1.7,0.6l243.6,200.7C303.7,232.7,308,234.1,312.6,234.1z M56,56v284.8l174.5-140.9
		L56,56z M393.7,200.8L568,340.8V57L393.7,200.8z M338.3,246.5c-6.9,5.7-16,8.8-25.6,8.8c-9.6,0-18.7-3.1-25.6-8.8l-40-33L56,368
		v0.5c0,1.5,1.3,2.7,2.7,2.7h506.6c1.5,0,2.7-1.2,2.7-2.7V368L377,214.6L338.3,246.5z"/>
</g>
</svg>
