<?xml version="1.0" encoding="utf-8"?>
<!-- Generator: Adobe Illustrator 19.0.0, SVG Export Plug-In . SVG Version: 6.00 Build 0)  -->
<svg version="1.1" id="Capa_1" xmlns="http://www.w3.org/2000/svg" xmlns:xlink="http://www.w3.org/1999/xlink" x="0px" y="0px"
	 viewBox="-493 -6 512 512" style="enable-background:new -493 -6 512 512;" xml:space="preserve">
<style type="text/css">
	.st0{fill:#37474F;}
</style>
<g>
	<path id="LinkedIn__x28_alt_x29_" class="st0" d="M-18.8-6h-436.4C-476.1-6-493,10.4-493,30.7v438.6c0,20.3,16.9,36.7,37.8,36.7
		h436.4C2.1,506,19,489.6,19,469.3V30.7C19,10.4,2.1-6-18.8-6z M-337.8,422.6h-77.4V191.4h77.4V422.6L-337.8,422.6z M-376.4,159.8
		h-0.6c-25.9,0-42.8-17.7-42.8-40c0-22.7,17.3-39.9,43.8-39.9s42.7,17.3,43.2,39.9C-332.7,142.1-349.5,159.8-376.4,159.8z
		 M-58.9,422.6h-77.3V298.9c0-31.1-11.2-52.3-39.2-52.3c-21.4,0-34.1,14.3-39.7,28.1c-2.1,4.9-2.6,11.8-2.6,18.7v129.1H-295
		c0,0,1-209.5,0-231.2h77.3v32.8c10.3-15.7,28.6-38.2,69.7-38.2c50.9,0,89.1,33,89.1,104.1V422.6L-58.9,422.6z M-218.2,224.9
		c0.1-0.2,0.3-0.5,0.5-0.7v0.7H-218.2z"/>
</g>
</svg>
