<?xml version="1.0" encoding="utf-8"?>
<!-- Generator: Adobe Illustrator 19.0.0, SVG Export Plug-In . SVG Version: 6.00 Build 0)  -->
<svg version="1.1" id="Capa_1" xmlns="http://www.w3.org/2000/svg" xmlns:xlink="http://www.w3.org/1999/xlink" x="0px" y="0px"
	 viewBox="-41 164.9 512 512" style="enable-background:new -41 164.9 512 512;" xml:space="preserve">
<style type="text/css">
	.st0{fill:#263238;}
</style>
<g>
	<path id="LinkedIn__x28_alt_x29_" class="st0" d="M433.2,164.9H-3.2c-20.9,0-37.8,16.4-37.8,36.7v438.6c0,20.3,16.9,36.7,37.8,36.7
		h436.4c20.9,0,37.8-16.4,37.8-36.7V201.6C471,181.3,454.1,164.9,433.2,164.9z M114.2,593.5H36.8V362.3h77.4L114.2,593.5
		L114.2,593.5z M75.6,330.7H75c-25.9,0-42.8-17.7-42.8-40c0-22.7,17.3-39.9,43.8-39.9s42.7,17.3,43.2,39.9
		C119.3,313,102.5,330.7,75.6,330.7z M393.1,593.5h-77.3V469.8c0-31.1-11.2-52.3-39.2-52.3c-21.4,0-34.1,14.3-39.7,28.1
		c-2.1,4.9-2.6,11.8-2.6,18.7v129.1H157c0,0,1-209.5,0-231.2h77.3V395c10.3-15.7,28.6-38.2,69.7-38.2c50.9,0,89.1,33,89.1,104.1
		V593.5L393.1,593.5z M233.8,395.8c0.1-0.2,0.3-0.5,0.5-0.7v0.7H233.8z"/>
</g>
</svg>
