<?xml version="1.0" encoding="utf-8"?>
<!-- Generator: Adobe Illustrator 19.0.0, SVG Export Plug-In . SVG Version: 6.00 Build 0)  -->
<svg version="1.1" id="Capa_1" xmlns="http://www.w3.org/2000/svg" xmlns:xlink="http://www.w3.org/1999/xlink" x="0px" y="0px"
	 viewBox="56 -56 512 512" style="enable-background:new 56 -56 512 512;" xml:space="preserve">
<g>
	<path id="LinkedIn__x28_alt_x29_" d="M530.2-56H93.8C72.9-56,56-39.6,56-19.3v438.6c0,20.3,16.9,36.7,37.8,36.7h436.4
		c20.9,0,37.8-16.4,37.8-36.7V-19.3C568-39.6,551.1-56,530.2-56z M211.2,372.6h-77.4V141.4h77.4V372.6z M172.6,109.8H172
		c-25.9,0-42.8-17.7-42.8-40c0-22.7,17.3-39.9,43.8-39.9c26.5,0,42.7,17.3,43.2,39.9C216.3,92.1,199.5,109.8,172.6,109.8z
		 M490.1,372.6h-77.3V248.9c0-31.1-11.2-52.3-39.2-52.3c-21.4,0-34.1,14.3-39.7,28.1c-2.1,4.9-2.6,11.8-2.6,18.7v129.1H254
		c0,0,1-209.5,0-231.2h77.3v32.8c10.3-15.7,28.6-38.2,69.7-38.2c50.9,0,89.1,33,89.1,104.1L490.1,372.6L490.1,372.6z M330.8,174.9
		c0.1-0.2,0.3-0.5,0.5-0.7v0.7H330.8z"/>
</g>
</svg>
