<?xml version="1.0" encoding="utf-8"?>
<!-- Generator: Adobe Illustrator 19.0.0, SVG Export Plug-In . SVG Version: 6.00 Build 0)  -->
<svg version="1.1" id="Capa_1" xmlns="http://www.w3.org/2000/svg" xmlns:xlink="http://www.w3.org/1999/xlink" x="0px" y="0px"
	 viewBox="106 -156 512 512" style="enable-background:new 106 -156 512 512;" xml:space="preserve">
<style type="text/css">
	.st0{fill:#FFFFFF;}
</style>
<g>
	<path id="LinkedIn__x28_alt_x29_" class="st0" d="M580.2-156H143.8c-20.9,0-37.8,16.4-37.8,36.7v438.6c0,20.3,16.9,36.7,37.8,36.7
		h436.4c20.9,0,37.8-16.4,37.8-36.7v-438.6C618-139.6,601.1-156,580.2-156z M261.2,272.6h-77.4V41.4h77.4V272.6L261.2,272.6z
		 M222.6,9.8H222c-25.9,0-42.8-17.7-42.8-40c0-22.7,17.3-39.9,43.8-39.9s42.7,17.3,43.2,39.9C266.3-7.9,249.5,9.8,222.6,9.8z
		 M540.1,272.6h-77.3V148.9c0-31.1-11.2-52.3-39.2-52.3c-21.4,0-34.1,14.3-39.7,28.1c-2.1,4.9-2.6,11.8-2.6,18.7v129.1H304
		c0,0,1-209.5,0-231.2h77.3v32.8c10.3-15.7,28.6-38.2,69.7-38.2c50.9,0,89.1,33,89.1,104.1V272.6L540.1,272.6z M380.8,74.9
		c0.1-0.2,0.3-0.5,0.5-0.7v0.7H380.8z"/>
</g>
</svg>
