<?xml version="1.0" encoding="utf-8"?>
<!-- Generator: Adobe Illustrator 19.0.0, SVG Export Plug-In . SVG Version: 6.00 Build 0)  -->
<svg version="1.1" id="Layer_1" xmlns="http://www.w3.org/2000/svg" xmlns:xlink="http://www.w3.org/1999/xlink" x="0px" y="0px"
	 viewBox="-493 -6 512 512" style="enable-background:new -493 -6 512 512;" xml:space="preserve">
<style type="text/css">
	.st0{fill:#37474F;}
</style>
<g>
	<g>
		<path class="st0" d="M19,143.5c-0.1-3-1.9-5.7-4.6-7l-159.2-79.6c-3.8-1.9-8.4-0.6-10.7,2.9l-107.6,165.5l-55.4-85.9
			c-0.8-1.2-1.9-2.3-3.3-2.9L-481,56.8c-5.4-2.7-12,1.4-12,7.4v79.6c0,4.6,3.7,8.3,8.3,8.3c4.6,0,8.3-3.7,8.3-8.3V77.7l142.7,71.3
			v335.3L-476.4,413V179.3c0-4.6-3.7-8.3-8.3-8.3c-4.6,0-8.3,3.7-8.3,8.3v238.9c0,3.1,1.8,6,4.6,7.4l159.2,79.6
			c5.4,2.7,12-1.4,12-7.4V343.1L7,505.2c5.4,2.7,12-1.4,12-7.4V143.9C19,143.8,19,143.6,19,143.5z M-317.2,324.5V172L-172,397.1
			L-317.2,324.5z M2.4,484.3l-139.3-69.7l108.6-187c2.3-4,1-9-3-11.3s-9-1-11.3,3l-106.2,182.9l-104.3-161.7L-145.6,75l144.7,72.4
			l-26.4,45.4c-2.3,4-1,9,3,11.3s9,1,11.3-3l15.4-26.4C2.4,174.7,2.4,484.3,2.4,484.3z"/>
	</g>
</g>
</svg>
