<?xml version="1.0" encoding="utf-8"?>
<!-- Generator: Adobe Illustrator 19.0.0, SVG Export Plug-In . SVG Version: 6.00 Build 0)  -->
<svg version="1.1" id="Capa_1" xmlns="http://www.w3.org/2000/svg" xmlns:xlink="http://www.w3.org/1999/xlink" x="0px" y="0px"
	 viewBox="56 -56 512 512" style="enable-background:new 56 -56 512 512;" xml:space="preserve">
<style type="text/css">
	.st0{fill:#263238;}
</style>
<g>
	<path class="st0" d="M410.6,245.8c11.5,0,22.9,0,34.3,0c0,70.1,0,140.1,0,210.2c-111.4,0-222.5,0-333.8,0c0-70.1,0-140.1,0-210.2
		c11.4,0,22.7,0,34.3,0c0,58.7,0,117.3,0,176.2c88.4,0,176.7,0,265.2,0C410.6,363.2,410.6,304.5,410.6,245.8z M313,10.5
		c38,55.8,75.9,111.3,113.9,167c12-8.2,23.8-16.3,35.7-24.3c-38.1-55.8-76-111.4-113.9-167C336.7-5.7,325,2.3,313,10.5z
		 M419.9,183.4c-58.2-34.3-116.1-68.5-174.1-102.7c-7.4,12.5-14.6,24.8-22,37.2c58,34.2,116,68.4,174.1,102.7
		C405.4,208.1,412.6,195.8,419.9,183.4z M478.3-56c-14.3,2.5-28.2,4.9-42.6,7.4c11.5,66.5,23.1,132.7,34.6,199.1
		c14.4-2.5,28.4-4.9,42.6-7.4C501.3,76.6,489.8,10.3,478.3-56z M394.4,232.8c-65.2-17.6-130.1-35-195.2-52.5
		c-3.8,13.9-7.5,27.7-11.2,41.7c65.2,17.5,130.2,35,195.2,52.5C387,260.5,390.7,246.7,394.4,232.8z M376.1,344.6
		c-67.4,0-134.5,0-201.8,0c0,14.5,0,28.7,0,42.9c67.4,0,134.6,0,201.8,0C376.1,373.1,376.1,358.8,376.1,344.6z M381.2,289.1
		c-67.2-6.2-134.2-12.4-201.3-18.5c-1.3,14.4-2.7,28.6-4,43c67.2,6.2,134.2,12.4,201.3,18.5C378.5,317.7,379.8,303.5,381.2,289.1z"
		/>
</g>
</svg>
