<?xml version="1.0" encoding="utf-8"?>
<!-- Generator: Adobe Illustrator 19.0.0, SVG Export Plug-In . SVG Version: 6.00 Build 0)  -->
<svg version="1.1" id="Capa_1" xmlns="http://www.w3.org/2000/svg" xmlns:xlink="http://www.w3.org/1999/xlink" x="0px" y="0px"
	 viewBox="106 -156 512 512" style="enable-background:new 106 -156 512 512;" xml:space="preserve">
<style type="text/css">
	.st0{fill:#FFFFFF;}
</style>
<path class="st0" d="M475.6,145.8c11.5,0,22.9,0,34.3,0c0,70.1,0,140.1,0,210.2c-111.4,0-222.5,0-333.8,0c0-70.1,0-140.1,0-210.2
	c11.4,0,22.7,0,34.3,0c0,58.7,0,117.3,0,176.2c88.4,0,176.7,0,265.2,0C475.6,263.2,475.6,204.5,475.6,145.8z M378-89.5
	c38,55.8,75.9,111.3,113.9,167c12-8.2,23.8-16.3,35.7-24.3c-38.1-55.8-76-111.4-113.9-167C401.7-105.7,390-97.7,378-89.5z
	 M484.9,83.4C426.7,49.1,368.8,14.9,310.8-19.3c-7.4,12.5-14.6,24.8-22,37.2c58,34.2,116,68.4,174.1,102.7
	C470.4,108.1,477.6,95.8,484.9,83.4z M543.3-156c-14.3,2.5-28.2,4.9-42.6,7.4c11.5,66.5,23.1,132.7,34.6,199.1
	c14.4-2.5,28.4-4.9,42.6-7.4C566.3-23.4,554.8-89.7,543.3-156z M459.4,132.8c-65.2-17.6-130.1-35-195.2-52.5
	c-3.8,13.9-7.5,27.7-11.2,41.7c65.2,17.5,130.2,35,195.2,52.5C452,160.5,455.7,146.7,459.4,132.8z M441.1,244.6
	c-67.4,0-134.5,0-201.8,0c0,14.5,0,28.7,0,42.9c67.4,0,134.6,0,201.8,0C441.1,273.1,441.1,258.8,441.1,244.6z M446.2,189.1
	c-67.2-6.2-134.2-12.4-201.3-18.5c-1.3,14.4-2.7,28.6-4,43c67.2,6.2,134.2,12.4,201.3,18.5C443.5,217.7,444.8,203.5,446.2,189.1z"/>
</svg>
