<?xml version="1.0" encoding="utf-8"?>
<!-- Generator: Adobe Illustrator 19.0.0, SVG Export Plug-In . SVG Version: 6.00 Build 0)  -->
<svg version="1.1" id="Capa_1" xmlns="http://www.w3.org/2000/svg" xmlns:xlink="http://www.w3.org/1999/xlink" x="0px" y="0px"
	 viewBox="-493 -6 512 512" style="enable-background:new -493 -6 512 512;" xml:space="preserve">
<style type="text/css">
	.st0{fill:#37474F;}
</style>
<path class="st0" d="M-110.4,295.8c11.5,0,22.9,0,34.3,0c0,70.1,0,140.1,0,210.2c-111.4,0-222.5,0-333.8,0c0-70.1,0-140.1,0-210.2
	c11.4,0,22.7,0,34.3,0c0,58.7,0,117.3,0,176.2c88.4,0,176.7,0,265.2,0C-110.4,413.2-110.4,354.5-110.4,295.8z M-208,60.5
	c38,55.8,75.9,111.3,113.9,167c12-8.2,23.8-16.3,35.7-24.3c-38.1-55.8-76-111.4-113.9-167C-184.3,44.3-196,52.3-208,60.5z
	 M-101.1,233.4c-58.2-34.3-116.1-68.5-174.1-102.7c-7.4,12.5-14.6,24.8-22,37.2c58,34.2,116,68.4,174.1,102.7
	C-115.6,258.1-108.4,245.8-101.1,233.4z M-42.7-6C-57-3.5-70.9-1.1-85.3,1.4c11.5,66.5,23.1,132.7,34.6,199.1
	c14.4-2.5,28.4-4.9,42.6-7.4C-19.7,126.6-31.2,60.3-42.7-6z M-126.6,282.8c-65.2-17.6-130.1-35-195.2-52.5
	c-3.8,13.9-7.5,27.7-11.2,41.7c65.2,17.5,130.2,35,195.2,52.5C-134,310.5-130.3,296.7-126.6,282.8z M-144.9,394.6
	c-67.4,0-134.5,0-201.8,0c0,14.5,0,28.7,0,42.9c67.4,0,134.6,0,201.8,0C-144.9,423.1-144.9,408.8-144.9,394.6z M-139.8,339.1
	c-67.2-6.2-134.2-12.4-201.3-18.5c-1.3,14.4-2.7,28.6-4,43c67.2,6.2,134.2,12.4,201.3,18.5C-142.5,367.7-141.2,353.5-139.8,339.1z"
	/>
</svg>
