<?xml version="1.0" encoding="utf-8"?>
<!-- Generator: Adobe Illustrator 19.0.0, SVG Export Plug-In . SVG Version: 6.00 Build 0)  -->
<svg version="1.1" id="Capa_1" xmlns="http://www.w3.org/2000/svg" xmlns:xlink="http://www.w3.org/1999/xlink" x="0px" y="0px"
	 viewBox="-41 164.9 512 512" style="enable-background:new -41 164.9 512 512;" xml:space="preserve">
<style type="text/css">
	.st0{fill:#263238;}
</style>
<path class="st0" d="M341.6,466.7c11.5,0,22.9,0,34.3,0c0,70.1,0,140.1,0,210.2c-111.4,0-222.5,0-333.8,0c0-70.1,0-140.1,0-210.2
	c11.4,0,22.7,0,34.3,0c0,58.7,0,117.3,0,176.2c88.4,0,176.7,0,265.2,0C341.6,584.1,341.6,525.4,341.6,466.7z M244,231.4
	c38,55.8,75.9,111.3,113.9,167c12-8.2,23.8-16.3,35.7-24.3c-38.1-55.8-76-111.4-113.9-167C267.7,215.2,256,223.2,244,231.4z
	 M350.9,404.3c-58.2-34.3-116.1-68.5-174.1-102.7c-7.4,12.5-14.6,24.8-22,37.2c58,34.2,116,68.4,174.1,102.7
	C336.4,429,343.6,416.7,350.9,404.3z M409.3,164.9c-14.3,2.5-28.2,4.9-42.6,7.4c11.5,66.5,23.1,132.7,34.6,199.1
	c14.4-2.5,28.4-4.9,42.6-7.4C432.3,297.5,420.8,231.2,409.3,164.9z M325.4,453.7c-65.2-17.6-130.1-35-195.2-52.5
	c-3.8,13.9-7.5,27.7-11.2,41.7c65.2,17.5,130.2,35,195.2,52.5C318,481.4,321.7,467.6,325.4,453.7z M307.1,565.5
	c-67.4,0-134.5,0-201.8,0c0,14.5,0,28.7,0,42.9c67.4,0,134.6,0,201.8,0C307.1,594,307.1,579.7,307.1,565.5z M312.2,510
	c-67.2-6.2-134.2-12.4-201.3-18.5c-1.3,14.4-2.7,28.6-4,43c67.2,6.2,134.2,12.4,201.3,18.5C309.5,538.6,310.8,524.4,312.2,510z"/>
</svg>
